<?xml version="1.0" encoding="UTF-8"?><svg id="Ebene_1" xmlns="http://www.w3.org/2000/svg" viewBox="0 0 240.94 155.91"><defs><style>.cls-1{fill:#6aa3b8;}.cls-2{fill:#a0cb81;}</style></defs><g><path class="cls-2" d="M40.26,101.73h-2.79l-.69,2.02h-1.78l3.28-9.17h1.31l3.28,9.17h-1.87l-.73-2.02Zm-2.34-1.43h1.95l-.68-2.03-.27-1.43h-.06l-.27,1.44-.66,2.01Z"/><path class="cls-2" d="M51.42,103.75h-5.76v-9.1h1.78v7.51h3.98v1.59Z"/><path class="cls-2" d="M60.11,103.75h-5.76v-9.1h1.78v7.51h3.98v1.59Z"/><path class="cls-2" d="M67.81,96.24h-2.65v7.51h-1.78v-7.51h-2.67v-1.59h7.1v1.59Z"/><path class="cls-2" d="M74.22,101.73h-2.79l-.69,2.02h-1.78l3.28-9.17h1.31l3.28,9.17h-1.87l-.73-2.02Zm-2.34-1.43h1.95l-.68-2.03-.27-1.43h-.06l-.27,1.44-.66,2.01Z"/><path class="cls-2" d="M82.42,99h3.39v4.06c-.36,.3-.8,.52-1.31,.66-.51,.14-1.01,.21-1.5,.21-.58,0-1.12-.09-1.62-.27-.5-.18-.93-.47-1.29-.85s-.65-.88-.86-1.48c-.21-.6-.31-1.31-.31-2.13s.12-1.59,.37-2.19c.25-.6,.57-1.09,.98-1.47,.4-.38,.86-.65,1.36-.82,.5-.17,1.01-.25,1.53-.25s.98,.04,1.37,.12,.71,.16,.94,.25l-.36,1.5c-.22-.09-.46-.15-.73-.2-.27-.05-.61-.07-1.03-.07-.37,0-.71,.06-1.03,.17-.31,.11-.58,.3-.81,.55-.23,.26-.41,.58-.53,.98-.13,.4-.19,.88-.19,1.46s.06,1.02,.18,1.41,.29,.72,.51,.98c.22,.25,.47,.44,.76,.57s.6,.18,.93,.18c.23,0,.45-.03,.66-.08,.22-.06,.4-.14,.55-.25v-1.72l-1.96-.21v-1.08Z"/><path class="cls-2" d="M93.07,101.31c0-.28-.1-.5-.31-.68s-.46-.33-.77-.47-.64-.29-1-.44c-.36-.15-.69-.34-1-.56s-.56-.5-.77-.83c-.2-.33-.31-.75-.31-1.26,0-.44,.07-.83,.22-1.15s.36-.6,.63-.81c.27-.22,.6-.38,.97-.48,.37-.1,.79-.16,1.25-.16,.53,0,1.03,.05,1.5,.14s.85,.22,1.16,.4l-.56,1.5c-.19-.12-.48-.23-.86-.33-.38-.1-.79-.15-1.24-.15-.42,0-.73,.08-.96,.25-.22,.17-.33,.39-.33,.66,0,.26,.1,.48,.31,.65,.2,.17,.46,.33,.77,.48s.64,.3,1,.46c.36,.16,.69,.34,1,.57s.56,.49,.77,.82c.2,.33,.31,.73,.31,1.21s-.08,.9-.24,1.25c-.16,.35-.39,.64-.68,.88-.29,.23-.64,.41-1.05,.52-.41,.11-.86,.17-1.36,.17-.65,0-1.22-.06-1.72-.18-.49-.12-.86-.24-1.09-.36l.57-1.52c.1,.05,.22,.11,.37,.17,.15,.06,.32,.12,.51,.17,.19,.05,.39,.09,.6,.13,.21,.03,.43,.05,.66,.05,.53,0,.93-.09,1.21-.27,.28-.18,.42-.45,.42-.81Z"/><path class="cls-2" d="M103.16,99.94h-3.33v3.81h-1.78v-9.1h1.78v3.71h3.33v-3.71h1.78v9.1h-1.78v-3.81Z"/><path class="cls-2" d="M108.71,94.65h1.78v9.1h-1.78v-9.1Z"/><path class="cls-2" d="M120,103.75h-5.76v-9.1h1.78v7.51h3.98v1.59Z"/><path class="cls-2" d="M122.94,94.65h5.39v1.59h-3.61v2.25h3.33v1.59h-3.33v3.68h-1.78v-9.1Z"/><path class="cls-2" d="M131.56,94.65h5.39v1.59h-3.61v2.12h3.29v1.59h-3.29v2.22h3.68v1.59h-5.46v-9.1Z"/><path class="cls-2" d="M146.5,94.74c.2-.04,.41-.07,.64-.1,.23-.03,.46-.05,.69-.07,.23-.02,.45-.03,.67-.04,.22,0,.42-.01,.6-.01,.42,0,.84,.04,1.25,.12,.41,.08,.78,.21,1.1,.4s.58,.45,.78,.79c.2,.33,.29,.75,.29,1.25,0,.75-.17,1.35-.52,1.82-.35,.47-.81,.79-1.39,.98l.64,.4,2.08,3.47h-2.05l-2.07-3.56-.94-.17v3.73h-1.78v-9.01Zm2.73,1.36c-.18,0-.36,0-.54,.01s-.31,.03-.41,.05v2.64h.75c.49,0,.89-.11,1.18-.34s.44-.6,.44-1.12c0-.39-.12-.7-.36-.92-.24-.22-.6-.33-1.07-.33Z"/><path class="cls-2" d="M160.34,101.73h-2.79l-.69,2.02h-1.78l3.28-9.17h1.31l3.28,9.17h-1.87l-.73-2.02Zm-2.34-1.43h1.95l-.68-2.03-.27-1.43h-.06l-.27,1.44-.66,2.01Z"/><path class="cls-2" d="M172.8,99.03l.2-1.81h-.08l-.56,1.46-1.94,3.39h-.57l-2.04-3.41-.57-1.44h-.07l.26,1.79v4.73h-1.69v-9.1h1.62l2.43,4.16,.43,1.04h.05l.39-1.07,2.3-4.13h1.61v9.1h-1.78v-4.72Z"/><path class="cls-2" d="M185.21,99.03l.2-1.81h-.08l-.56,1.46-1.94,3.39h-.57l-2.04-3.41-.57-1.44h-.07l.26,1.79v4.73h-1.69v-9.1h1.62l2.43,4.16,.43,1.04h.05l.39-1.07,2.3-4.13h1.61v9.1h-1.78v-4.72Z"/><path class="cls-2" d="M195.05,101.73h-2.79l-.69,2.02h-1.78l3.28-9.17h1.31l3.28,9.17h-1.87l-.73-2.02Zm-2.34-1.43h1.95l-.68-2.03-.27-1.43h-.06l-.27,1.44-.66,2.01Z"/><path class="cls-2" d="M206.21,103.75h-5.76v-9.1h1.78v7.51h3.98v1.59Z"/></g><g><path class="cls-1" d="M64.09,115.74h-1.19l-.61-3.33h-.01l-.6,3.33h-1.19l-.93-4.96h1.14l.51,3.45h.03l.54-3.45h1.08l.56,3.45h.02l.5-3.45h1.08l-.94,4.96Z"/><path class="cls-1" d="M67.17,115.74v-4.96h1.13v4.96h-1.13Z"/><path class="cls-1" d="M72.89,115.74l-.66-1.97h-.33v1.97h-1.08v-4.96h1.58c.48,0,.85,.12,1.12,.37,.27,.25,.4,.62,.4,1.12,0,.18-.02,.34-.06,.49-.04,.15-.1,.27-.16,.37s-.14,.19-.23,.25c-.08,.07-.17,.11-.24,.14l.84,2.21h-1.18Zm-.07-3.4c0-.13-.02-.23-.05-.31s-.08-.14-.14-.19-.12-.08-.19-.09c-.07-.02-.13-.02-.2-.02h-.35v1.25h.33c.16,0,.3-.05,.42-.15,.12-.1,.18-.26,.18-.49Z"/><path class="cls-1" d="M81.35,111.96c-.08-.1-.18-.17-.29-.23-.11-.05-.23-.08-.35-.08s-.24,.04-.34,.12c-.1,.08-.15,.21-.15,.39,0,.15,.05,.27,.15,.36,.1,.09,.25,.18,.46,.28,.11,.06,.23,.12,.36,.2,.12,.08,.24,.17,.34,.28,.1,.11,.19,.25,.26,.4,.07,.16,.1,.34,.1,.56,0,.27-.04,.5-.13,.7-.08,.2-.2,.37-.34,.5-.14,.13-.31,.23-.5,.3-.19,.07-.38,.1-.58,.1-.3,0-.57-.06-.82-.17s-.44-.24-.59-.39l.57-.84c.11,.11,.23,.2,.37,.27,.14,.07,.28,.1,.43,.1,.13,0,.25-.04,.34-.13,.09-.09,.14-.21,.14-.37s-.06-.29-.17-.39-.28-.2-.49-.3c-.13-.07-.26-.14-.38-.22-.12-.08-.22-.17-.32-.29-.09-.11-.16-.24-.21-.39-.05-.15-.08-.33-.08-.53,0-.28,.04-.51,.14-.71,.09-.2,.21-.36,.36-.49,.15-.13,.31-.22,.49-.28s.36-.09,.54-.09c.27,0,.51,.04,.73,.13s.39,.21,.54,.36l-.58,.82Z"/><path class="cls-1" d="M84.17,115.74v-4.96h1.13v4.96h-1.13Z"/><path class="cls-1" d="M89.97,115.74l-1.15-3.02h-.02l.03,3.02h-1v-4.96h1.23l1.14,3.06h.02l-.02-3.06h.97v4.96h-1.2Z"/><path class="cls-1" d="M97.14,113.27c0,.37-.04,.71-.12,1.01s-.21,.56-.38,.78c-.17,.21-.38,.38-.64,.5-.26,.12-.57,.17-.92,.17h-1.39v-4.96h1.39c.35,0,.66,.06,.92,.17,.26,.12,.47,.28,.64,.5,.17,.22,.29,.48,.38,.78s.12,.65,.12,1.03Zm-1.13,0c0-.5-.08-.88-.25-1.13-.17-.25-.39-.38-.66-.38h-.27v3h.27c.27,0,.49-.13,.66-.38,.17-.25,.25-.62,.25-1.1Z"/><path class="cls-1" d="M102.51,115.74v-4.96h1.13v4.96h-1.13Z"/><path class="cls-1" d="M108.23,115.74v-2.07h-1.16v2.07h-1.11v-4.96h1.11v1.88h1.16v-1.88h1.11v4.96h-1.11Z"/><path class="cls-1" d="M113.72,115.74l-.66-1.97h-.33v1.97h-1.08v-4.96h1.58c.48,0,.85,.12,1.12,.37,.27,.25,.4,.62,.4,1.12,0,.18-.02,.34-.06,.49-.04,.15-.1,.27-.16,.37s-.14,.19-.23,.25c-.08,.07-.17,.11-.24,.14l.84,2.21h-1.18Zm-.07-3.4c0-.13-.02-.23-.05-.31s-.08-.14-.14-.19-.12-.08-.19-.09c-.07-.02-.13-.02-.2-.02h-.35v1.25h.33c.16,0,.3-.05,.42-.15,.12-.1,.18-.26,.18-.49Z"/><path class="cls-1" d="M116.88,115.74v-4.96h2.39v.99h-1.32v.97h1.22v.92h-1.22v1.06h1.41v1.01h-2.48Z"/><path class="cls-1" d="M126.54,115.74h-1.42l-1.2-4.96h1.27l.67,3.63h.01l.67-3.63h1.22l-1.22,4.96Z"/><path class="cls-1" d="M129.88,115.74v-4.96h2.39v.99h-1.32v.97h1.22v.92h-1.22v1.06h1.41v1.01h-2.48Z"/><path class="cls-1" d="M136.77,115.74l-.66-1.97h-.33v1.97h-1.08v-4.96h1.58c.48,0,.85,.12,1.12,.37,.27,.25,.4,.62,.4,1.12,0,.18-.02,.34-.06,.49-.04,.15-.1,.27-.16,.37s-.14,.19-.23,.25c-.08,.07-.17,.11-.24,.14l.84,2.21h-1.18Zm-.07-3.4c0-.13-.02-.23-.05-.31s-.08-.14-.14-.19-.12-.08-.19-.09c-.07-.02-.13-.02-.2-.02h-.35v1.25h.33c.16,0,.3-.05,.42-.15,.12-.1,.18-.26,.18-.49Z"/><path class="cls-1" d="M142.23,111.96c-.08-.1-.18-.17-.29-.23-.11-.05-.23-.08-.35-.08s-.24,.04-.34,.12c-.1,.08-.15,.21-.15,.39,0,.15,.05,.27,.15,.36,.1,.09,.25,.18,.46,.28,.11,.06,.23,.12,.36,.2,.12,.08,.24,.17,.34,.28,.1,.11,.19,.25,.26,.4,.07,.16,.1,.34,.1,.56,0,.27-.04,.5-.13,.7-.08,.2-.2,.37-.34,.5-.14,.13-.31,.23-.5,.3-.19,.07-.38,.1-.58,.1-.3,0-.57-.06-.82-.17s-.44-.24-.59-.39l.57-.84c.11,.11,.23,.2,.37,.27,.14,.07,.28,.1,.43,.1,.13,0,.25-.04,.34-.13,.09-.09,.14-.21,.14-.37s-.06-.29-.17-.39-.28-.2-.49-.3c-.13-.07-.26-.14-.38-.22-.12-.08-.22-.17-.32-.29-.09-.11-.16-.24-.21-.39-.05-.15-.08-.33-.08-.53,0-.28,.04-.51,.14-.71,.09-.2,.21-.36,.36-.49,.15-.13,.31-.22,.49-.28s.36-.09,.54-.09c.27,0,.51,.04,.73,.13s.39,.21,.54,.36l-.58,.82Z"/><path class="cls-1" d="M146.61,111.73v4h-1.1v-4h-.91v-.95h2.92v.95h-.91Z"/><path class="cls-1" d="M151.71,115.74l-.2-.9h-1.11l-.2,.9h-1.12l1.2-4.96h1.41l1.2,4.96h-1.17Zm-.86-5.96c0,.16-.05,.3-.15,.41s-.22,.17-.37,.17-.28-.06-.37-.17-.14-.25-.14-.41,.05-.29,.14-.41,.22-.17,.37-.17,.27,.06,.37,.17,.15,.25,.15,.41Zm.12,2.08h-.03l-.42,2.11h.85l-.4-2.11Zm1.17-2.08c0,.16-.05,.3-.15,.41s-.22,.17-.37,.17-.28-.06-.37-.17-.14-.25-.14-.41,.05-.29,.14-.41,.22-.17,.37-.17,.27,.06,.37,.17,.15,.25,.15,.41Z"/><path class="cls-1" d="M157.07,115.74l-.66-1.97h-.33v1.97h-1.08v-4.96h1.58c.48,0,.85,.12,1.12,.37,.27,.25,.4,.62,.4,1.12,0,.18-.02,.34-.06,.49-.04,.15-.1,.27-.16,.37s-.14,.19-.23,.25c-.08,.07-.17,.11-.24,.14l.84,2.21h-1.18Zm-.07-3.4c0-.13-.02-.23-.05-.31s-.08-.14-.14-.19-.12-.08-.19-.09c-.07-.02-.13-.02-.2-.02h-.35v1.25h.33c.16,0,.3-.05,.42-.15,.12-.1,.18-.26,.18-.49Z"/><path class="cls-1" d="M162.68,115.74l-1.06-2.3h-.02v2.3h-1.13v-4.96h1.13v2.06h.02l1.02-2.06h1.25l-1.27,2.27,1.35,2.69h-1.29Z"/><path class="cls-1" d="M169.23,114.67c-.06,.24-.16,.45-.3,.62-.14,.18-.31,.32-.53,.42s-.47,.15-.78,.15-.56-.05-.77-.15-.38-.24-.51-.42c-.13-.18-.23-.38-.29-.62-.06-.24-.09-.49-.09-.77v-3.12h1.13v3.02c0,.14,0,.27,.02,.39,.02,.12,.04,.22,.09,.31,.04,.09,.1,.16,.17,.21,.07,.05,.16,.08,.27,.08s.2-.03,.27-.08c.07-.05,.13-.12,.17-.21,.04-.09,.07-.19,.09-.31s.02-.25,.02-.39v-3.02h1.12v3.12c0,.28-.03,.53-.09,.77Z"/><path class="cls-1" d="M173.95,115.74l-1.15-3.02h-.02l.03,3.02h-1v-4.96h1.23l1.14,3.06h.02l-.02-3.06h.97v4.96h-1.2Z"/><path class="cls-1" d="M180.29,115.74c-.22,.07-.49,.11-.79,.11s-.59-.06-.84-.19-.45-.3-.62-.53c-.17-.23-.3-.5-.39-.82-.09-.32-.14-.67-.14-1.06s.04-.74,.14-1.06c.09-.32,.22-.59,.39-.83,.17-.23,.37-.41,.61-.54,.24-.13,.5-.19,.79-.19,.34,0,.62,.06,.84,.17,.23,.11,.41,.26,.54,.43l-.61,.82c-.17-.23-.4-.35-.69-.35-.16,0-.29,.04-.4,.12-.11,.08-.21,.19-.28,.33-.08,.14-.13,.3-.17,.49s-.05,.38-.05,.59,.02,.41,.05,.6c.03,.19,.09,.35,.16,.49,.07,.14,.16,.25,.27,.34s.24,.13,.4,.13c.17,0,.3-.03,.39-.1v-.92h-.53v-.97h1.51v2.64c-.16,.12-.35,.22-.57,.29Z"/></g><g><path class="cls-1" d="M190.34,135.08H50.35c-1.76,0-3.19-1.25-3.19-2.78v-23.19c0-.29,.24-.53,.53-.53s.53,.24,.53,.53v23.19c0,.95,.96,1.73,2.14,1.73H190.34c1.18,0,2.14-.78,2.14-1.73v-23.19c0-.29,.24-.53,.53-.53s.53,.24,.53,.53v23.19c0,1.53-1.43,2.78-3.19,2.78Z"/><g><path class="cls-1" d="M193.01,90.82c-.29,0-.53-.24-.53-.53V53.51c0-.95-.96-1.73-2.14-1.73h-38.03c-.29,0-.53-.24-.53-.53s.24-.53,.53-.53h38.03c1.76,0,3.19,1.25,3.19,2.78v36.79c0,.29-.24,.53-.53,.53Z"/><path class="cls-1" d="M47.68,90.82c-.29,0-.53-.24-.53-.53V53.51c0-1.53,1.43-2.78,3.19-2.78h38.03c.29,0,.53,.24,.53,.53s-.24,.53-.53,.53H50.35c-1.18,0-2.14,.78-2.14,1.73v36.79c0,.29-.24,.53-.53,.53Z"/></g></g><g><path class="cls-2" d="M121.85,22.03c-1.04,.79-1.91,1.47-2.81,2.11-.19,.14-.5,.13-.75,.15-7.5,.61-13.79,3.7-18.7,9.4-5.68,6.61-7.7,14.28-6.25,22.85,.84,4.96,2.97,9.32,6.31,13.09,.44,.5,.69,.99,.64,1.66-.05,.66-.01,1.34-.01,2.06-7.63-6.53-12.04-18.72-8.29-30.56,4.33-13.68,17.09-21.44,29.88-20.77Z"/><path class="cls-2" d="M147.16,64.06c-5.88,13.19-21.56,20.5-35.64,15.87,.64-.38,1.39-.85,2.18-1.28,.24-.13,.58-.25,.83-.2,5.63,1.13,11.12,.64,16.42-1.56,3.12-1.3,5.88-3.18,8.34-5.51,2.58-2.45,5.2-4.84,7.87-7.33Z"/><path class="cls-2" d="M149.91,50.02l-2.27-.2c-.19-2.99-.86-5.85-1.98-8.61-1.12-2.77-2.69-5.27-4.63-7.53l1.4-1.75c4.55,5.15,7.01,11.18,7.48,18.09Z"/></g><path class="cls-1" d="M127.52,44.98c-.37,0-.74-.12-1.05-.36-1.98-1.54-5.34-4.52-5.63-7.13-.09-.8,.11-1.54,.6-2.14,.9-1.11,1.87-1.31,2.55-1.27,1.23,.06,2.3,.92,3.01,1.67,.39-.57,.95-1.18,1.72-1.54,.8-.37,1.69-.4,2.58-.08,.97,.36,1.58,1.15,1.7,2.22,.31,2.72-2.58,7.07-4.55,8.35-.28,.18-.61,.28-.93,.28Zm-.05-1.78h0Zm-3.64-7.33c-.18,0-.55,.05-1,.61-.18,.22-.25,.48-.21,.81,.19,1.64,2.75,4.18,4.9,5.88,1.51-1.03,3.91-4.69,3.69-6.61-.06-.5-.29-.65-.53-.74-.44-.16-.83-.16-1.2,.01-.8,.37-1.34,1.46-1.48,1.85-.12,.32-.4,.54-.74,.58-.33,.04-.67-.11-.85-.4-.33-.5-1.51-1.95-2.51-1.99-.02,0-.04,0-.06,0Z"/><path class="cls-1" d="M136.1,51.76h-17.71c-1.19,0-2.15-.97-2.15-2.15v-17.59h-.9c-.38,0-.72-.24-.85-.6s-.01-.76,.28-1l11.59-9.39c.33-.27,.8-.27,1.12,0l3.04,2.43v-1c0-.5,.4-.9,.9-.9h3.7c.5,0,.9,.4,.9,.9v5.43l3.21,2.53c.3,.24,.42,.64,.29,1-.12,.36-.46,.6-.85,.6h-.9v18.07c0,.92-.75,1.67-1.67,1.67Zm-18.45-21.37c.22,.16,.37,.43,.37,.73v18.49c0,.2,.16,.36,.36,.36h17.59V31.12c0-.29,.14-.54,.35-.71l-1.78-1.4c-.23-.18-.35-.46-.34-.74l.02-.45v-4.46h-1.91v1.8c0,.24-.09,.45-.24,.61-.01,.02-.02,.03-.04,.05-.31,.39-.87,.45-1.26,.14l-3.85-3.08-9.27,7.52Z"/><path class="cls-1" d="M150.37,52.36c-1.11-.8-2.7-.89-3.7-.22-.38,.25-1.39,1.07-2.72,2.19-.36-.54-.91-1.11-1.72-1.37-1.21-.38-2.59,.05-4.09,1.28-1.46,1.2-2.73,2.29-3.34,2.82-1.22-.3-2.61,.04-3.88,.36-1.69,.43-3.45,.87-5.04,.12-3.75-1.77-6.43-2.87-9.45-2.09-1.51,.39-2.95,1.51-3.99,2.51v-.35c0-1.2-.97-2.17-2.17-2.17h-6.28c-1.2,0-2.17,.97-2.17,2.17v18.25c0,1.2,.97,2.17,2.17,2.17h6.28c1.2,0,2.17-.97,2.17-2.17v-2.95c.16,.04,.32,.07,.5,.11,1.96,.44,5.07,1.13,8.87,1.13,1.82,0,3.81-.16,5.9-.58,7.99-1.61,11.97-5.15,13.68-6.66,.18-.16,.34-.3,.46-.4,.09-.07,8.76-7.24,9.66-10.56,.4-1.48,0-2.79-1.12-3.59Zm-11.11,3.26c.69-.56,1.67-1.19,2.42-.96,.42,.13,.7,.51,.88,.83-1.59,1.35-3.43,2.92-5.17,4.43-.11-.56-.35-1.11-.73-1.62-.08-.1-.16-.2-.25-.29,.68-.58,1.7-1.46,2.85-2.4Zm-28.63,20.23c0,.21-.17,.38-.38,.38h-6.28c-.21,0-.38-.17-.38-.38v-18.25c0-.21,.17-.38,.38-.38h6.28c.21,0,.38,.17,.38,.38v18.25Zm39.13-20.38c-.6,2.2-6.94,7.92-9.06,9.64-.14,.11-.31,.26-.52,.45-1.59,1.42-5.33,4.73-12.84,6.25-6.1,1.23-11.06,.12-14.03-.54-.32-.07-.62-.14-.89-.2v-10.5c.59-.71,2.53-2.91,4.43-3.4,2.26-.58,4.28,.11,8.24,1.98,2.18,1.03,4.44,.46,6.25,0,1.98-.5,3.14-.74,3.88,.24,.47,.61,.55,1.24,.27,1.91-.08,.19-.2,.39-.33,.57-.19,.25-.42,.49-.67,.7-.13,.1-.75,.51-.76,.52-4.56,3.06-10.42,2.72-10.48,2.72-.48-.04-.92,.34-.95,.84-.03,.49,.34,.92,.83,.95,.05,0,.33,.02,.77,.02,1.86,0,6.72-.29,10.82-3.04,0,0,.78-.52,.9-.62,.34-.28,.64-.59,.89-.92l.94-.82c5.78-5,9.5-8.13,10.2-8.6,.34-.23,1.12-.2,1.66,.19,.5,.36,.64,.92,.44,1.66Z"/></svg>